<svg width="19" height="21" viewBox="0 0 19 21" fill="none" xmlns="http://www.w3.org/2000/svg">
<path d="M6.83122 13.5741L8.66065 16.3449C8.75708 16.491 8.88336 16.6098 9.0292 16.6917C9.17505 16.7736 9.33634 16.8163 9.49994 16.8163C9.66354 16.8163 9.82483 16.7736 9.97067 16.6917C10.1165 16.6098 10.2428 16.491 10.3392 16.3449L12.1687 13.5741C14.4237 13.9342 15.9941 14.736 15.9941 15.6679C15.9941 16.9365 13.0866 17.9648 9.5 17.9648C5.91338 17.9648 3.00586 16.9365 3.00586 15.6679C3.00586 14.736 4.57615 13.9342 6.83122 13.5741Z" fill="#DFEEB6"/>
<path d="M9.50001 15.668L6.07594 10.4818C5.61469 9.78319 5.33741 8.9571 5.2748 8.09502C5.21219 7.23295 5.3667 6.36855 5.72121 5.59755C6.07572 4.82656 6.6164 4.17907 7.28336 3.72681C7.95032 3.27455 8.71753 3.03516 9.50001 3.03516C10.2825 3.03516 11.0497 3.27455 11.7167 3.72681C12.3836 4.17907 12.9243 4.82656 13.2788 5.59755C13.6333 6.36855 13.7878 7.23295 13.7252 8.09502C13.6626 8.9571 13.3853 9.78319 12.9241 10.4818L9.50001 15.668ZM9.50001 5.64073C9.1279 5.64073 8.76414 5.76269 8.45474 5.99118C8.14533 6.21968 7.90419 6.54445 7.76178 6.92443C7.61938 7.30441 7.58212 7.72253 7.65472 8.12591C7.72732 8.52929 7.90651 8.89982 8.16963 9.19064C8.43275 9.48146 8.76799 9.67952 9.13296 9.75975C9.49792 9.83999 9.87622 9.79881 10.22 9.64142C10.5638 9.48403 10.8576 9.21749 11.0644 8.87552C11.2711 8.53355 11.3814 8.1315 11.3814 7.72022C11.3814 7.1687 11.1832 6.63978 10.8304 6.2498C10.4775 5.85982 9.999 5.64073 9.50001 5.64073V5.64073Z" fill="#DFEEB6"/>
</svg>
